<?xml version="1.0" encoding="UTF-8"?>
<svg xmlns="http://www.w3.org/2000/svg" xmlns:xlink="http://www.w3.org/1999/xlink" width="28px" height="28px" viewBox="0 0 28 28" version="1.1">
<g id="surface1">
<path style=" stroke:none;fill-rule:nonzero;fill:rgb(0%,0%,0%);fill-opacity:1;" d="M 26.082031 22.886719 C 23.109375 21.542969 22.996094 15.777344 22.992188 15.628906 L 22.992188 11.761719 C 22.992188 8.035156 20.714844 4.832031 17.484375 3.46875 C 17.476562 1.554688 15.917969 0 14 0 C 12.082031 0 10.523438 1.554688 10.515625 3.46875 C 7.285156 4.832031 5.007812 8.035156 5.007812 11.761719 L 5.007812 15.628906 C 5.003906 15.777344 4.890625 21.542969 1.917969 22.886719 C 1.578125 23.039062 1.390625 23.410156 1.46875 23.773438 C 1.546875 24.136719 1.871094 24.398438 2.242188 24.398438 L 9.785156 24.398438 C 9.941406 25.246094 10.34375 26.039062 10.957031 26.679688 C 11.773438 27.53125 12.855469 28 14 28 C 15.144531 28 16.226562 27.53125 17.042969 26.679688 C 17.65625 26.039062 18.058594 25.246094 18.214844 24.398438 L 25.757812 24.398438 C 26.128906 24.398438 26.453125 24.136719 26.53125 23.773438 C 26.609375 23.410156 26.421875 23.039062 26.082031 22.886719 Z M 22.164062 20.125 C 22.476562 21.074219 22.917969 22.023438 23.546875 22.816406 L 4.453125 22.816406 C 5.082031 22.023438 5.523438 21.074219 5.835938 20.125 Z M 14 1.578125 C 14.867188 1.578125 15.601562 2.160156 15.828125 2.957031 C 15.238281 2.832031 14.625 2.769531 14 2.769531 C 13.375 2.769531 12.761719 2.832031 12.171875 2.957031 C 12.402344 2.160156 13.132812 1.578125 14 1.578125 Z M 6.585938 15.636719 L 6.585938 11.761719 C 6.585938 7.671875 9.914062 4.347656 14 4.347656 C 18.085938 4.347656 21.414062 7.671875 21.414062 11.761719 L 21.414062 15.640625 C 21.414062 15.761719 21.433594 17.007812 21.746094 18.546875 L 6.253906 18.546875 C 6.566406 17.007812 6.585938 15.757812 6.585938 15.636719 Z M 14 26.421875 C 12.796875 26.421875 11.742188 25.550781 11.40625 24.398438 L 16.59375 24.398438 C 16.257812 25.550781 15.207031 26.421875 14 26.421875 Z M 14 26.421875 "/>
<path style=" stroke:none;fill-rule:nonzero;fill:rgb(0%,0%,0%);fill-opacity:1;" d="M 14 5.457031 C 10.601562 5.457031 7.839844 8.21875 7.839844 11.617188 C 7.839844 12.050781 8.191406 12.40625 8.628906 12.40625 C 9.066406 12.40625 9.417969 12.050781 9.417969 11.617188 C 9.417969 9.089844 11.472656 7.035156 14 7.035156 C 14.4375 7.035156 14.789062 6.679688 14.789062 6.246094 C 14.789062 5.808594 14.4375 5.457031 14 5.457031 Z M 14 5.457031 "/>
</g>
</svg>
