<svg width="23" height="28" viewBox="0 0 23 28" fill="none" xmlns="http://www.w3.org/2000/svg">
<path fill-rule="evenodd" clip-rule="evenodd" d="M0.960241 0H21.2819C21.8086 0 22.2422 0.431314 22.2422 0.960241V26.9344C22.2422 27.4633 21.8109 27.8946 21.2819 27.8946H0.960241C0.433584 27.8946 0 27.4633 0 26.9344V0.960241C0 0.431314 0.431314 0 0.960241 0ZM14.5353 4.10883H16.1334V5.40958H14.5353V4.10883ZM17.3547 4.10883H18.9528V5.40958H17.3547V4.10883ZM2.26326 10.2403H4.92379C5.15079 10.2403 5.33921 10.4264 5.33921 10.6557V12.9008C5.33921 13.1278 5.15306 13.3162 4.92379 13.3162H2.26326C2.03625 13.3162 1.84784 13.1301 1.84784 12.9008V10.6557C1.85011 10.4264 2.03625 10.2403 2.26326 10.2403ZM17.5681 22.9958H20.2263C20.4534 22.9958 20.6418 23.182 20.6418 23.4113V25.6564C20.6418 25.8834 20.4556 26.0718 20.2263 26.0718H17.5681C17.3411 26.0718 17.1527 25.8856 17.1527 25.6564V23.4113C17.1527 23.182 17.3411 22.9958 17.5681 22.9958ZM12.4672 22.9958H15.1255C15.3525 22.9958 15.5386 23.182 15.5386 23.4113V25.6564C15.5386 25.8834 15.3525 26.0718 15.1255 26.0718H12.4672C12.2402 26.0718 12.0518 25.8856 12.0518 25.6564V23.4113C12.0518 23.182 12.238 22.9958 12.4672 22.9958ZM7.36638 22.9958H10.0269C10.2539 22.9958 10.4423 23.182 10.4423 23.4113V25.6564C10.4423 25.8834 10.2562 26.0718 10.0269 26.0718H7.36638C7.13938 26.0718 6.95096 25.8856 6.95096 25.6564V23.4113C6.95096 23.182 7.13711 22.9958 7.36638 22.9958ZM2.26326 22.9958H4.92379C5.15079 22.9958 5.33921 23.182 5.33921 23.4113V25.6564C5.33921 25.8834 5.15306 26.0718 4.92379 26.0718H2.26326C2.03625 26.0718 1.84784 25.8856 1.84784 25.6564V23.4113C1.85011 23.182 2.03625 22.9958 2.26326 22.9958ZM17.5681 18.744H20.2263C20.4534 18.744 20.6418 18.9301 20.6418 19.1594V21.4045C20.6418 21.6338 20.4556 21.8199 20.2263 21.8199H17.5681C17.3411 21.8199 17.1527 21.6338 17.1527 21.4045V19.1594C17.1527 18.9301 17.3411 18.744 17.5681 18.744ZM12.4672 18.744H15.1255C15.3525 18.744 15.5386 18.9301 15.5386 19.1594V21.4045C15.5386 21.6338 15.3525 21.8199 15.1255 21.8199H12.4672C12.2402 21.8199 12.0518 21.6338 12.0518 21.4045V19.1594C12.0518 18.9301 12.238 18.744 12.4672 18.744ZM7.36638 18.744H10.0269C10.2539 18.744 10.4423 18.9301 10.4423 19.1594V21.4045C10.4423 21.6338 10.2562 21.8199 10.0269 21.8199H7.36638C7.13938 21.8199 6.95096 21.6338 6.95096 21.4045V19.1594C6.95096 18.9301 7.13711 18.744 7.36638 18.744ZM2.26326 18.744H4.92379C5.15079 18.744 5.33921 18.9301 5.33921 19.1594V21.4045C5.33921 21.6338 5.15306 21.8199 4.92379 21.8199H2.26326C2.03625 21.8199 1.84784 21.6338 1.84784 21.4045V19.1594C1.85011 18.9301 2.03625 18.744 2.26326 18.744ZM17.5681 14.4921H20.2263C20.4534 14.4921 20.6418 14.6783 20.6418 14.9076V17.1527C20.6418 17.3797 20.4556 17.5681 20.2263 17.5681H17.5681C17.3411 17.5681 17.1527 17.3819 17.1527 17.1527V14.9076C17.1527 14.6783 17.3411 14.4921 17.5681 14.4921ZM12.4672 14.4921H15.1255C15.3525 14.4921 15.5386 14.6783 15.5386 14.9076V17.1527C15.5386 17.3797 15.3525 17.5681 15.1255 17.5681H12.4672C12.2402 17.5681 12.0518 17.3819 12.0518 17.1527V14.9076C12.0518 14.6783 12.238 14.4921 12.4672 14.4921ZM7.36638 14.4921H10.0269C10.2539 14.4921 10.4423 14.6783 10.4423 14.9076V17.1527C10.4423 17.3797 10.2562 17.5681 10.0269 17.5681H7.36638C7.13938 17.5681 6.95096 17.3819 6.95096 17.1527V14.9076C6.95096 14.6783 7.13711 14.4921 7.36638 14.4921ZM2.26326 14.4921H4.92379C5.15079 14.4921 5.33921 14.6783 5.33921 14.9076V17.1527C5.33921 17.3797 5.15306 17.5681 4.92379 17.5681H2.26326C2.03625 17.5681 1.84784 17.3819 1.84784 17.1527V14.9076C1.85011 14.6783 2.03625 14.4921 2.26326 14.4921ZM17.5681 10.2403H20.2263C20.4534 10.2403 20.6418 10.4264 20.6418 10.6557V12.9008C20.6418 13.1278 20.4556 13.3162 20.2263 13.3162H17.5681C17.3411 13.3162 17.1527 13.1301 17.1527 12.9008V10.6557C17.1527 10.4264 17.3411 10.2403 17.5681 10.2403ZM12.4672 10.2403H15.1255C15.3525 10.2403 15.5386 10.4264 15.5386 10.6557V12.9008C15.5386 13.1278 15.3525 13.3162 15.1255 13.3162H12.4672C12.2402 13.3162 12.0518 13.1301 12.0518 12.9008V10.6557C12.0518 10.4264 12.238 10.2403 12.4672 10.2403ZM7.36638 10.2403H10.0269C10.2539 10.2403 10.4423 10.4264 10.4423 10.6557V12.9008C10.4423 13.1278 10.2562 13.3162 10.0269 13.3162H7.36638C7.13938 13.3162 6.95096 13.1301 6.95096 12.9008V10.6557C6.95096 10.4264 7.13711 10.2403 7.36638 10.2403ZM2.04761 1.95907H19.9993C20.1741 1.95907 20.3149 2.10209 20.3149 2.27461V6.61499C20.3149 6.78979 20.1741 6.93053 19.9993 6.93053H2.04761C1.87281 6.93053 1.73207 6.78752 1.73207 6.61499V2.27461C1.73207 2.10209 1.87508 1.95907 2.04761 1.95907Z" fill="#C7C7C7"/>
</svg>
