<?xml version="1.0" encoding="UTF-8"?>
<svg xmlns="http://www.w3.org/2000/svg" xmlns:xlink="http://www.w3.org/1999/xlink" width="28px" height="28px" viewBox="0 0 28 28" version="1.1">
<g id="surface1">
<path style=" stroke:none;fill-rule:evenodd;fill:rgb(78.039216%,78.039216%,78.039216%);fill-opacity:1;" d="M 1.167969 0.453125 L 25.910156 0.453125 C 26.546875 0.453125 27.078125 0.867188 27.078125 1.378906 L 27.078125 26.519531 C 27.078125 27.03125 26.550781 27.445312 25.910156 27.445312 L 1.167969 27.445312 C 0.53125 27.445312 0 27.03125 0 26.519531 L 0 1.378906 C 0 0.867188 0.523438 0.453125 1.167969 0.453125 Z M 17.695312 4.429688 L 19.640625 4.429688 L 19.640625 5.6875 L 17.695312 5.6875 Z M 21.125 4.429688 L 23.074219 4.429688 L 23.074219 5.6875 L 21.125 5.6875 Z M 2.757812 10.363281 L 5.992188 10.363281 C 6.269531 10.363281 6.5 10.542969 6.5 10.765625 L 6.5 12.9375 C 6.5 13.15625 6.273438 13.335938 5.992188 13.335938 L 2.757812 13.335938 C 2.480469 13.335938 2.25 13.15625 2.25 12.9375 L 2.25 10.765625 C 2.253906 10.542969 2.480469 10.363281 2.757812 10.363281 Z M 21.390625 22.703125 L 24.621094 22.703125 C 24.898438 22.703125 25.128906 22.882812 25.128906 23.105469 L 25.128906 25.28125 C 25.128906 25.5 24.902344 25.683594 24.621094 25.683594 L 21.390625 25.683594 C 21.109375 25.683594 20.882812 25.503906 20.882812 25.28125 L 20.882812 23.105469 C 20.882812 22.882812 21.109375 22.703125 21.390625 22.703125 Z M 15.175781 22.703125 L 18.414062 22.703125 C 18.691406 22.703125 18.917969 22.882812 18.917969 23.105469 L 18.917969 25.28125 C 18.917969 25.5 18.691406 25.683594 18.414062 25.683594 L 15.175781 25.683594 C 14.902344 25.683594 14.671875 25.503906 14.671875 25.28125 L 14.671875 23.105469 C 14.671875 22.882812 14.898438 22.703125 15.175781 22.703125 Z M 8.96875 22.703125 L 12.207031 22.703125 C 12.480469 22.703125 12.714844 22.882812 12.714844 23.105469 L 12.714844 25.28125 C 12.714844 25.5 12.484375 25.683594 12.207031 25.683594 L 8.96875 25.683594 C 8.691406 25.683594 8.460938 25.503906 8.460938 25.28125 L 8.460938 23.105469 C 8.460938 22.882812 8.6875 22.703125 8.96875 22.703125 Z M 2.757812 22.703125 L 5.992188 22.703125 C 6.269531 22.703125 6.5 22.882812 6.5 23.105469 L 6.5 25.28125 C 6.5 25.5 6.273438 25.683594 5.992188 25.683594 L 2.757812 25.683594 C 2.480469 25.683594 2.25 25.503906 2.25 25.28125 L 2.25 23.105469 C 2.253906 22.882812 2.480469 22.703125 2.757812 22.703125 Z M 21.390625 18.589844 L 24.621094 18.589844 C 24.898438 18.589844 25.128906 18.769531 25.128906 18.992188 L 25.128906 21.164062 C 25.128906 21.386719 24.902344 21.566406 24.621094 21.566406 L 21.390625 21.566406 C 21.109375 21.566406 20.882812 21.386719 20.882812 21.164062 L 20.882812 18.992188 C 20.882812 18.769531 21.109375 18.589844 21.390625 18.589844 Z M 15.175781 18.589844 L 18.414062 18.589844 C 18.691406 18.589844 18.917969 18.769531 18.917969 18.992188 L 18.917969 21.164062 C 18.917969 21.386719 18.691406 21.566406 18.414062 21.566406 L 15.175781 21.566406 C 14.902344 21.566406 14.671875 21.386719 14.671875 21.164062 L 14.671875 18.992188 C 14.671875 18.769531 14.898438 18.589844 15.175781 18.589844 Z M 8.96875 18.589844 L 12.207031 18.589844 C 12.480469 18.589844 12.714844 18.769531 12.714844 18.992188 L 12.714844 21.164062 C 12.714844 21.386719 12.484375 21.566406 12.207031 21.566406 L 8.96875 21.566406 C 8.691406 21.566406 8.460938 21.386719 8.460938 21.164062 L 8.460938 18.992188 C 8.460938 18.769531 8.6875 18.589844 8.96875 18.589844 Z M 2.757812 18.589844 L 5.992188 18.589844 C 6.269531 18.589844 6.5 18.769531 6.5 18.992188 L 6.5 21.164062 C 6.5 21.386719 6.273438 21.566406 5.992188 21.566406 L 2.757812 21.566406 C 2.480469 21.566406 2.25 21.386719 2.25 21.164062 L 2.25 18.992188 C 2.253906 18.769531 2.480469 18.589844 2.757812 18.589844 Z M 21.390625 14.476562 L 24.621094 14.476562 C 24.898438 14.476562 25.128906 14.65625 25.128906 14.878906 L 25.128906 17.050781 C 25.128906 17.269531 24.902344 17.453125 24.621094 17.453125 L 21.390625 17.453125 C 21.109375 17.453125 20.882812 17.273438 20.882812 17.050781 L 20.882812 14.878906 C 20.882812 14.65625 21.109375 14.476562 21.390625 14.476562 Z M 15.175781 14.476562 L 18.414062 14.476562 C 18.691406 14.476562 18.917969 14.65625 18.917969 14.878906 L 18.917969 17.050781 C 18.917969 17.269531 18.691406 17.453125 18.414062 17.453125 L 15.175781 17.453125 C 14.902344 17.453125 14.671875 17.273438 14.671875 17.050781 L 14.671875 14.878906 C 14.671875 14.65625 14.898438 14.476562 15.175781 14.476562 Z M 8.96875 14.476562 L 12.207031 14.476562 C 12.480469 14.476562 12.714844 14.65625 12.714844 14.878906 L 12.714844 17.050781 C 12.714844 17.269531 12.484375 17.453125 12.207031 17.453125 L 8.96875 17.453125 C 8.691406 17.453125 8.460938 17.273438 8.460938 17.050781 L 8.460938 14.878906 C 8.460938 14.65625 8.6875 14.476562 8.96875 14.476562 Z M 2.757812 14.476562 L 5.992188 14.476562 C 6.269531 14.476562 6.5 14.65625 6.5 14.878906 L 6.5 17.050781 C 6.5 17.269531 6.273438 17.453125 5.992188 17.453125 L 2.757812 17.453125 C 2.480469 17.453125 2.25 17.273438 2.25 17.050781 L 2.25 14.878906 C 2.253906 14.65625 2.480469 14.476562 2.757812 14.476562 Z M 21.390625 10.363281 L 24.621094 10.363281 C 24.898438 10.363281 25.128906 10.542969 25.128906 10.765625 L 25.128906 12.9375 C 25.128906 13.15625 24.902344 13.335938 24.621094 13.335938 L 21.390625 13.335938 C 21.109375 13.335938 20.882812 13.15625 20.882812 12.9375 L 20.882812 10.765625 C 20.882812 10.542969 21.109375 10.363281 21.390625 10.363281 Z M 15.175781 10.363281 L 18.414062 10.363281 C 18.691406 10.363281 18.917969 10.542969 18.917969 10.765625 L 18.917969 12.9375 C 18.917969 13.15625 18.691406 13.335938 18.414062 13.335938 L 15.175781 13.335938 C 14.902344 13.335938 14.671875 13.15625 14.671875 12.9375 L 14.671875 10.765625 C 14.671875 10.542969 14.898438 10.363281 15.175781 10.363281 Z M 8.96875 10.363281 L 12.207031 10.363281 C 12.480469 10.363281 12.714844 10.542969 12.714844 10.765625 L 12.714844 12.9375 C 12.714844 13.15625 12.484375 13.335938 12.207031 13.335938 L 8.96875 13.335938 C 8.691406 13.335938 8.460938 13.15625 8.460938 12.9375 L 8.460938 10.765625 C 8.460938 10.542969 8.6875 10.363281 8.96875 10.363281 Z M 2.492188 2.347656 L 24.347656 2.347656 C 24.5625 2.347656 24.730469 2.488281 24.730469 2.652344 L 24.730469 6.851562 C 24.730469 7.019531 24.5625 7.160156 24.347656 7.160156 L 2.492188 7.160156 C 2.28125 7.160156 2.109375 7.019531 2.109375 6.851562 L 2.109375 2.652344 C 2.109375 2.488281 2.285156 2.347656 2.492188 2.347656 Z M 2.492188 2.347656 "/>
</g>
</svg>
