<svg width="28" height="28" viewBox="0 0 28 28" fill="none" xmlns="http://www.w3.org/2000/svg">
<path d="M14 2.10319C13.5785 2.10319 13.1706 2.12142 12.7809 2.16016C12.3913 2.19889 11.9971 2.25586 11.6029 2.33561C11.2109 2.41309 10.8304 2.51107 10.4635 2.62272C10.1012 2.73438 9.74349 2.86654 9.39258 3.01465L9.36979 3.02604C8.99837 3.18555 8.64518 3.35645 8.30566 3.53874C7.96387 3.72331 7.63574 3.92155 7.32357 4.13118C7.00911 4.3431 6.70378 4.56869 6.41439 4.80794C6.125 5.0472 5.84473 5.30013 5.57585 5.57129L5.56673 5.5804C5.29785 5.84928 5.04492 6.12728 4.80794 6.41439C4.56869 6.70605 4.3431 7.00911 4.13118 7.32357C3.92155 7.63346 3.72559 7.96159 3.54102 8.30339C3.35872 8.6429 3.18555 8.99837 3.02604 9.36751L3.01465 9.39258L2.9987 9.42448C2.85514 9.76628 2.72754 10.1172 2.61816 10.4749C2.50651 10.8372 2.41309 11.2109 2.33561 11.5983C2.25586 11.9925 2.19889 12.3844 2.16016 12.7764C2.12142 13.1683 2.10319 13.5739 2.10319 13.9954C2.10319 14.417 2.12142 14.8249 2.16016 15.2145C2.19889 15.6042 2.25586 15.9984 2.33561 16.3926C2.41536 16.7845 2.51107 17.165 2.625 17.5319C2.73665 17.8896 2.86426 18.2451 3.01237 18.5938C3.02148 18.6097 3.02832 18.6257 3.03516 18.6416C3.19238 19.0062 3.361 19.3548 3.54329 19.6898C3.72786 20.0316 3.92611 20.3597 4.13346 20.6696C4.34538 20.9863 4.57096 21.2894 4.8125 21.5811C5.04492 21.8636 5.29329 22.137 5.55534 22.3991C5.57129 22.4128 5.58496 22.4264 5.59863 22.4424C5.86296 22.7067 6.13639 22.9528 6.41667 23.1852C6.70833 23.4245 7.01139 23.6501 7.32585 23.862C7.63574 24.0716 7.96387 24.2676 8.30566 24.4521C8.64518 24.6344 9.00065 24.8076 9.36979 24.9671L9.41764 24.9899C9.764 25.1357 10.1172 25.2633 10.4818 25.375C10.8418 25.4867 11.2178 25.5801 11.6029 25.6576C11.9971 25.7373 12.389 25.7943 12.7809 25.833C13.1729 25.8717 13.5785 25.89 14 25.89C14.4215 25.89 14.8294 25.8717 15.2191 25.833C15.6087 25.7943 16.0029 25.7373 16.3971 25.6576C16.7891 25.5778 17.1696 25.4821 17.5365 25.3682C17.8988 25.2565 18.2565 25.1243 18.6097 24.974L18.6302 24.9648V24.9626C19.0016 24.8031 19.3548 24.6322 19.6943 24.4499C20.0361 24.2653 20.3643 24.0671 20.6764 23.8574C20.9909 23.6455 21.2962 23.4199 21.5856 23.1807C21.8704 22.946 22.1439 22.6976 22.4105 22.431C22.4242 22.4173 22.4355 22.4036 22.4515 22.39C22.7135 22.1279 22.9596 21.8545 23.1921 21.5742C23.4313 21.2826 23.6592 20.9795 23.8711 20.6628C24.0807 20.3529 24.2767 20.0247 24.4613 19.6829C24.6436 19.3434 24.8167 18.9902 24.9762 18.6188L24.999 18.5687C25.1449 18.2246 25.2725 17.8714 25.3841 17.5091C25.4958 17.1468 25.5892 16.7731 25.6667 16.3857C25.7464 15.9915 25.8034 15.5996 25.8421 15.2077C25.8809 14.8158 25.8991 14.4102 25.8991 13.9886C25.8991 13.5671 25.8809 13.1592 25.8421 12.7695C25.8034 12.3799 25.7464 11.9857 25.6667 11.5915C25.5869 11.1995 25.4912 10.819 25.3773 10.4521C25.2656 10.0898 25.1335 9.7321 24.9831 9.37891L24.974 9.3584C24.8145 8.98698 24.6436 8.63379 24.4613 8.29427C24.2767 7.95247 24.0785 7.62435 23.8711 7.31445C23.6592 7 23.4336 6.69466 23.1943 6.40527C22.9619 6.12272 22.7113 5.84701 22.4469 5.58268C22.431 5.56901 22.4173 5.55534 22.4059 5.54167C22.1416 5.27734 21.8704 5.03125 21.5879 4.79883C21.2962 4.55957 20.9932 4.33398 20.6787 4.12207C20.3665 3.91244 20.0407 3.71647 19.6989 3.5319C19.3594 3.34961 19.0062 3.17643 18.6348 3.01921L18.5915 2.9987C18.2451 2.85286 17.8897 2.72298 17.5251 2.61133C17.165 2.49967 16.7891 2.40625 16.4017 2.32878C16.0075 2.24902 15.6156 2.19206 15.2236 2.15332C14.8294 2.12142 14.4215 2.10319 14 2.10319ZM14.4329 7.10254C14.932 7.10254 15.3239 7.24609 15.6087 7.53092C15.8913 7.81576 16.0348 8.2054 16.0348 8.70899C16.0348 9.2194 15.791 9.67057 15.3034 10.0693C14.8112 10.4658 14.2415 10.6663 13.5898 10.6663C13.1022 10.6663 12.7126 10.5296 12.4141 10.2562C12.1156 9.97819 11.9674 9.62044 11.9674 9.17383C11.9674 8.611 12.2113 8.12793 12.6943 7.7155C13.1751 7.30534 13.7562 7.10254 14.4329 7.10254ZM17.2152 20.8975H10.7848V19.8151H11.9925V13.2048H10.7848V12.3434H13.7904C14.5492 12.3434 15.2966 12.2523 16.0348 12.0654V19.8151H17.2152V20.8975ZM11.1927 0.273438C11.6393 0.18457 12.1019 0.116211 12.5781 0.070638C13.0544 0.0227865 13.5283 0 14 0C14.4717 0 14.9456 0.0227865 15.4219 0.070638C15.8981 0.116211 16.3607 0.18457 16.8073 0.273438C17.2494 0.362305 17.6914 0.473958 18.1335 0.610677C18.5619 0.742839 18.9857 0.897786 19.4049 1.07552L19.4482 1.09147L19.4619 1.09603C19.8835 1.27832 20.2936 1.47656 20.6878 1.69076C21.0775 1.90267 21.4626 2.13509 21.8431 2.3903C22.2145 2.64095 22.5745 2.90755 22.9209 3.19238C23.2673 3.47721 23.5977 3.77572 23.9098 4.09245C24.2243 4.4069 24.5251 4.7373 24.8099 5.08138C25.0947 5.42773 25.3613 5.78548 25.612 6.15918C25.8604 6.5306 26.0928 6.91569 26.3092 7.31217H26.3115C26.5257 7.70866 26.7262 8.11882 26.9063 8.54036C26.9108 8.55176 26.9154 8.56315 26.9199 8.57454C27.0977 8.99154 27.2526 9.41764 27.387 9.85059C27.526 10.2972 27.64 10.7438 27.7288 11.1927C27.8177 11.6393 27.8861 12.1019 27.9316 12.5781C27.9772 13.0544 28 13.5283 28 14C28 14.4717 27.9772 14.9456 27.9294 15.4219C27.8838 15.8981 27.8154 16.3607 27.7266 16.8073C27.6377 17.2494 27.526 17.6914 27.3893 18.1335C27.2572 18.5641 27.0999 18.9902 26.9222 19.4141L26.9131 19.4346L26.9017 19.4596C26.7194 19.8812 26.5212 20.2913 26.307 20.6855C26.0951 21.0752 25.8626 21.4603 25.6074 21.8408C25.3568 22.2122 25.0902 22.5723 24.8053 22.9186C24.5205 23.265 24.222 23.5931 23.9053 23.9076C23.5908 24.222 23.2604 24.5228 22.9141 24.8076C22.5677 25.0924 22.21 25.359 21.8385 25.6074C21.4671 25.8558 21.082 26.0882 20.6855 26.3047C20.2799 26.5234 19.8721 26.724 19.4574 26.9017C19.446 26.9063 19.4346 26.9108 19.4209 26.9154C19.0039 27.0931 18.5778 27.248 18.1449 27.3825C17.6982 27.5215 17.2516 27.6354 16.805 27.7243C16.3584 27.8132 15.8958 27.8815 15.4196 27.9271C14.9434 27.9727 14.4694 27.9954 13.9977 27.9954C13.526 27.9954 13.0521 27.9727 12.5758 27.9271C12.0996 27.8815 11.637 27.8132 11.1904 27.7243C10.7484 27.6354 10.3063 27.5238 9.86426 27.387C9.43359 27.2549 9.00749 27.0977 8.58594 26.9199L8.54036 26.9017C8.11882 26.7194 7.70866 26.5212 7.31445 26.307C6.9248 26.0951 6.53971 25.8626 6.15918 25.6074C5.78776 25.359 5.42773 25.0902 5.08366 24.8076C4.7373 24.5228 4.4069 24.222 4.09245 23.9076C3.77799 23.5931 3.47721 23.2627 3.19238 22.9186C2.90755 22.5723 2.64095 22.2122 2.3903 21.8408C2.14193 21.4694 1.90951 21.0843 1.69303 20.6878C1.47201 20.2822 1.27376 19.8721 1.09603 19.4574C1.09147 19.446 1.08691 19.4346 1.08236 19.4232C0.904622 19.0062 0.749675 18.5801 0.615234 18.1471C0.476237 17.7005 0.362305 17.2516 0.273438 16.805C0.18457 16.3584 0.116211 15.8958 0.070638 15.4196C0.0227865 14.9456 0 14.4717 0 14C0 13.5283 0.0227865 13.0544 0.070638 12.5781C0.116211 12.1019 0.18457 11.6393 0.273438 11.1927C0.362305 10.7507 0.473958 10.3086 0.610677 9.86654C0.742839 9.43815 0.897786 9.01432 1.07552 8.59277L1.09603 8.54036C1.27832 8.11882 1.47656 7.70866 1.69076 7.31445C1.90267 6.9248 2.13509 6.53971 2.3903 6.15918C2.64095 5.78776 2.90755 5.42773 3.19238 5.08138C3.47721 4.73503 3.77572 4.4069 4.09245 4.09245C4.4069 3.77799 4.7373 3.47721 5.08138 3.19238C5.42773 2.90755 5.78548 2.64095 6.15918 2.3903C6.53971 2.13509 6.9248 1.90267 7.31445 1.69076L7.34408 1.67708C7.73828 1.46289 8.13705 1.27148 8.54264 1.09603C8.55404 1.09147 8.56543 1.08691 8.57682 1.08236C8.99382 0.904622 9.41992 0.749675 9.85287 0.615234C10.2972 0.476237 10.7438 0.362305 11.1927 0.273438Z" fill="#C7C7C7"/>
</svg>
