<?xml version="1.0" encoding="UTF-8"?>
<svg xmlns="http://www.w3.org/2000/svg" xmlns:xlink="http://www.w3.org/1999/xlink" width="28px" height="28px" viewBox="0 0 28 28" version="1.1">
<g id="surface1">
<path style=" stroke:none;fill-rule:nonzero;fill:rgb(78.039216%,78.039216%,78.039216%);fill-opacity:1;" d="M 14 2.101562 C 13.578125 2.101562 13.171875 2.121094 12.78125 2.160156 C 12.390625 2.199219 11.996094 2.257812 11.601562 2.335938 C 11.210938 2.414062 10.832031 2.511719 10.464844 2.621094 C 10.101562 2.734375 9.742188 2.867188 9.394531 3.015625 L 9.371094 3.027344 C 9 3.1875 8.644531 3.355469 8.304688 3.539062 C 7.964844 3.722656 7.636719 3.921875 7.324219 4.132812 C 7.007812 4.34375 6.703125 4.570312 6.414062 4.808594 C 6.125 5.046875 5.84375 5.300781 5.574219 5.570312 L 5.566406 5.582031 C 5.296875 5.847656 5.042969 6.128906 4.808594 6.414062 C 4.570312 6.707031 4.34375 7.007812 4.132812 7.324219 C 3.921875 7.632812 3.726562 7.960938 3.542969 8.304688 C 3.359375 8.644531 3.1875 9 3.027344 9.367188 L 3.015625 9.394531 L 3 9.425781 C 2.855469 9.765625 2.726562 10.117188 2.617188 10.476562 C 2.507812 10.835938 2.414062 11.210938 2.335938 11.597656 C 2.257812 11.992188 2.199219 12.382812 2.160156 12.777344 C 2.121094 13.167969 2.101562 13.574219 2.101562 13.996094 C 2.101562 14.417969 2.121094 14.824219 2.160156 15.214844 C 2.199219 15.605469 2.257812 16 2.335938 16.394531 C 2.414062 16.785156 2.511719 17.164062 2.625 17.53125 C 2.738281 17.890625 2.863281 18.246094 3.011719 18.59375 C 3.019531 18.609375 3.027344 18.625 3.035156 18.640625 C 3.191406 19.007812 3.359375 19.355469 3.542969 19.691406 C 3.726562 20.03125 3.925781 20.359375 4.132812 20.667969 C 4.34375 20.984375 4.570312 21.289062 4.8125 21.582031 C 5.042969 21.863281 5.292969 22.136719 5.554688 22.398438 C 5.570312 22.414062 5.585938 22.425781 5.597656 22.441406 C 5.863281 22.707031 6.136719 22.953125 6.417969 23.183594 C 6.707031 23.425781 7.011719 23.648438 7.324219 23.863281 C 7.636719 24.070312 7.964844 24.269531 8.304688 24.453125 C 8.644531 24.632812 9 24.808594 9.371094 24.96875 L 9.417969 24.988281 C 9.765625 25.136719 10.117188 25.261719 10.480469 25.375 C 10.84375 25.488281 11.21875 25.582031 11.601562 25.65625 C 11.996094 25.738281 12.390625 25.792969 12.78125 25.832031 C 13.171875 25.871094 13.578125 25.890625 14 25.890625 C 14.421875 25.890625 14.828125 25.871094 15.21875 25.832031 C 15.609375 25.792969 16.003906 25.738281 16.398438 25.65625 C 16.789062 25.578125 17.167969 25.480469 17.535156 25.367188 C 17.898438 25.257812 18.257812 25.125 18.609375 24.972656 L 18.628906 24.964844 L 18.628906 24.960938 C 19 24.804688 19.355469 24.632812 19.695312 24.449219 C 20.035156 24.265625 20.363281 24.066406 20.675781 23.855469 C 20.992188 23.644531 21.296875 23.417969 21.585938 23.179688 C 21.871094 22.945312 22.144531 22.699219 22.410156 22.429688 C 22.425781 22.417969 22.433594 22.402344 22.453125 22.390625 C 22.714844 22.128906 22.960938 21.855469 23.191406 21.574219 C 23.429688 21.28125 23.660156 20.980469 23.871094 20.664062 C 24.082031 20.351562 24.277344 20.023438 24.460938 19.683594 C 24.644531 19.34375 24.816406 18.988281 24.976562 18.617188 L 25 18.570312 C 25.144531 18.222656 25.273438 17.871094 25.382812 17.507812 C 25.496094 17.148438 25.589844 16.773438 25.667969 16.386719 C 25.746094 15.992188 25.804688 15.597656 25.84375 15.207031 C 25.882812 14.816406 25.898438 14.410156 25.898438 13.988281 C 25.898438 13.566406 25.882812 13.160156 25.84375 12.769531 C 25.804688 12.378906 25.746094 11.984375 25.667969 11.589844 C 25.585938 11.199219 25.492188 10.820312 25.378906 10.453125 C 25.265625 10.089844 25.132812 9.730469 24.984375 9.378906 L 24.972656 9.359375 C 24.816406 8.988281 24.644531 8.632812 24.460938 8.292969 C 24.277344 7.953125 24.078125 7.625 23.871094 7.3125 C 23.660156 7 23.433594 6.695312 23.195312 6.40625 C 22.960938 6.121094 22.710938 5.847656 22.445312 5.582031 C 22.429688 5.570312 22.417969 5.554688 22.40625 5.542969 C 22.140625 5.277344 21.871094 5.03125 21.589844 4.800781 C 21.296875 4.558594 20.992188 4.332031 20.679688 4.121094 C 20.367188 3.914062 20.039062 3.714844 19.699219 3.53125 C 19.359375 3.351562 19.007812 3.175781 18.636719 3.019531 L 18.589844 3 C 18.246094 2.851562 17.890625 2.722656 17.523438 2.613281 C 17.164062 2.5 16.789062 2.40625 16.402344 2.328125 C 16.007812 2.25 15.617188 2.191406 15.222656 2.152344 C 14.828125 2.121094 14.421875 2.101562 14 2.101562 Z M 14.433594 7.101562 C 14.933594 7.101562 15.324219 7.246094 15.609375 7.53125 C 15.890625 7.816406 16.035156 8.207031 16.035156 8.710938 C 16.035156 9.21875 15.789062 9.671875 15.304688 10.070312 C 14.8125 10.464844 14.242188 10.667969 13.589844 10.667969 C 13.101562 10.667969 12.710938 10.53125 12.414062 10.257812 C 12.117188 9.976562 11.96875 9.621094 11.96875 9.175781 C 11.96875 8.609375 12.210938 8.128906 12.695312 7.714844 C 13.175781 7.304688 13.757812 7.101562 14.433594 7.101562 Z M 17.214844 20.898438 L 10.785156 20.898438 L 10.785156 19.816406 L 11.992188 19.816406 L 11.992188 13.203125 L 10.785156 13.203125 L 10.785156 12.34375 L 13.789062 12.34375 C 14.550781 12.34375 15.296875 12.253906 16.035156 12.066406 L 16.035156 19.816406 L 17.214844 19.816406 Z M 11.191406 0.273438 C 11.640625 0.183594 12.101562 0.117188 12.578125 0.0703125 C 13.054688 0.0234375 13.527344 0 14 0 C 14.472656 0 14.945312 0.0234375 15.421875 0.0703125 C 15.898438 0.117188 16.359375 0.183594 16.808594 0.273438 C 17.25 0.363281 17.691406 0.472656 18.132812 0.609375 C 18.5625 0.742188 18.984375 0.898438 19.40625 1.074219 L 19.449219 1.089844 L 19.460938 1.097656 C 19.882812 1.277344 20.292969 1.476562 20.6875 1.691406 C 21.078125 1.902344 21.460938 2.136719 21.84375 2.390625 C 22.214844 2.640625 22.574219 2.90625 22.921875 3.191406 C 23.265625 3.476562 23.597656 3.777344 23.910156 4.09375 C 24.222656 4.40625 24.523438 4.738281 24.808594 5.082031 C 25.09375 5.425781 25.359375 5.785156 25.613281 6.160156 C 25.859375 6.53125 26.09375 6.914062 26.308594 7.3125 L 26.3125 7.3125 C 26.527344 7.707031 26.726562 8.117188 26.90625 8.539062 C 26.910156 8.550781 26.914062 8.5625 26.917969 8.574219 C 27.097656 8.992188 27.253906 9.417969 27.386719 9.851562 C 27.527344 10.296875 27.640625 10.742188 27.730469 11.191406 C 27.816406 11.640625 27.886719 12.101562 27.929688 12.578125 C 27.976562 13.054688 28 13.527344 28 14 C 28 14.472656 27.976562 14.945312 27.929688 15.421875 C 27.882812 15.898438 27.816406 16.359375 27.726562 16.808594 C 27.636719 17.25 27.527344 17.691406 27.390625 18.132812 C 27.257812 18.5625 27.101562 18.988281 26.921875 19.414062 L 26.914062 19.433594 L 26.902344 19.460938 C 26.71875 19.882812 26.519531 20.292969 26.308594 20.683594 C 26.09375 21.074219 25.863281 21.460938 25.605469 21.839844 C 25.355469 22.210938 25.089844 22.574219 24.804688 22.917969 C 24.519531 23.265625 24.222656 23.59375 23.90625 23.90625 C 23.589844 24.222656 23.261719 24.523438 22.914062 24.808594 C 22.566406 25.09375 22.210938 25.359375 21.839844 25.605469 C 21.46875 25.855469 21.082031 26.089844 20.683594 26.304688 C 20.28125 26.523438 19.871094 26.722656 19.457031 26.902344 C 19.445312 26.90625 19.433594 26.910156 19.421875 26.914062 C 19.003906 27.09375 18.578125 27.246094 18.144531 27.382812 C 17.699219 27.523438 17.25 27.636719 16.804688 27.722656 C 16.359375 27.8125 15.894531 27.882812 15.417969 27.925781 C 14.945312 27.972656 14.46875 27.996094 13.996094 27.996094 C 13.527344 27.996094 13.050781 27.972656 12.574219 27.925781 C 12.097656 27.882812 11.636719 27.8125 11.191406 27.722656 C 10.75 27.636719 10.304688 27.523438 9.863281 27.386719 C 9.433594 27.253906 9.007812 27.097656 8.585938 26.917969 L 8.539062 26.902344 C 8.117188 26.71875 7.707031 26.519531 7.3125 26.308594 C 6.925781 26.09375 6.539062 25.863281 6.160156 25.605469 C 5.789062 25.359375 5.425781 25.089844 5.082031 24.808594 C 4.738281 24.523438 4.40625 24.222656 4.09375 23.90625 C 3.777344 23.59375 3.476562 23.261719 3.191406 22.917969 C 2.90625 22.574219 2.640625 22.210938 2.390625 21.839844 C 2.140625 21.46875 1.910156 21.085938 1.691406 20.6875 C 1.472656 20.28125 1.273438 19.871094 1.097656 19.457031 C 1.089844 19.445312 1.085938 19.433594 1.082031 19.421875 C 0.90625 19.007812 0.75 18.582031 0.613281 18.148438 C 0.476562 17.699219 0.363281 17.25 0.273438 16.804688 C 0.183594 16.359375 0.117188 15.894531 0.0703125 15.417969 C 0.0234375 14.945312 0 14.472656 0 14 C 0 13.527344 0.0234375 13.054688 0.0703125 12.578125 C 0.117188 12.101562 0.183594 11.640625 0.273438 11.191406 C 0.363281 10.75 0.472656 10.308594 0.609375 9.867188 C 0.742188 9.4375 0.898438 9.015625 1.074219 8.59375 L 1.097656 8.539062 C 1.277344 8.117188 1.476562 7.707031 1.691406 7.3125 C 1.902344 6.925781 2.136719 6.539062 2.390625 6.160156 C 2.640625 5.789062 2.90625 5.425781 3.191406 5.082031 C 3.476562 4.734375 3.777344 4.40625 4.09375 4.09375 C 4.40625 3.777344 4.738281 3.476562 5.082031 3.191406 C 5.425781 2.90625 5.785156 2.640625 6.160156 2.390625 C 6.539062 2.136719 6.925781 1.902344 7.3125 1.691406 L 7.34375 1.675781 C 7.738281 1.460938 8.136719 1.269531 8.542969 1.097656 C 8.554688 1.089844 8.566406 1.085938 8.578125 1.082031 C 8.992188 0.90625 9.417969 0.75 9.851562 0.613281 C 10.296875 0.476562 10.742188 0.363281 11.191406 0.273438 Z M 11.191406 0.273438 "/>
</g>
</svg>
