<?xml version="1.0" encoding="UTF-8"?>
<svg xmlns="http://www.w3.org/2000/svg" xmlns:xlink="http://www.w3.org/1999/xlink" width="28px" height="28px" viewBox="0 0 28 28" version="1.1">
<g id="surface1">
<path style=" stroke:none;fill-rule:evenodd;fill:rgb(78.039216%,78.039216%,78.039216%);fill-opacity:1;" d="M 10.570312 16.210938 C 9.851562 15.570312 9.285156 15.105469 9.164062 13.765625 L 9.085938 13.765625 C 8.910156 13.769531 8.734375 13.726562 8.578125 13.632812 C 8.324219 13.472656 8.125 13.230469 8.019531 12.945312 C 7.757812 12.34375 7.5625 10.773438 8.207031 10.320312 L 8.085938 10.238281 L 8.070312 10.066406 C 8.046875 9.75 8.039062 9.375 8.03125 8.960938 C 8.007812 7.484375 7.980469 5.683594 6.796875 5.328125 L 6.292969 5.171875 L 6.625 4.757812 C 7.5 3.640625 8.492188 2.625 9.585938 1.730469 C 10.710938 0.828125 11.875 0.234375 13.007812 0.0546875 C 13.597656 -0.0429688 14.199219 -0.0117188 14.773438 0.152344 C 15.351562 0.3125 15.882812 0.601562 16.339844 0.996094 C 16.664062 1.261719 16.964844 1.566406 17.230469 1.898438 C 17.761719 1.953125 18.269531 2.125 18.730469 2.394531 C 19.1875 2.667969 19.585938 3.03125 19.898438 3.46875 C 20.289062 4 20.585938 4.597656 20.765625 5.234375 C 20.953125 5.886719 21.03125 6.5625 20.992188 7.238281 C 20.957031 8.457031 20.464844 9.617188 19.609375 10.484375 C 19.761719 10.488281 19.90625 10.523438 20.039062 10.59375 C 20.53125 10.859375 20.546875 11.4375 20.417969 11.921875 C 20.292969 12.324219 20.128906 12.796875 19.976562 13.1875 C 19.789062 13.722656 19.519531 13.820312 18.992188 13.761719 C 18.964844 15.074219 18.359375 15.441406 17.550781 16.210938 C 17.585938 18.191406 10.523438 17.957031 10.566406 16.210938 Z M 10.203125 17.847656 L 12.304688 23.96875 L 13.359375 20.375 L 12.84375 19.804688 C 12.457031 19.230469 12.589844 18.578125 13.300781 18.464844 C 13.558594 18.4375 13.820312 18.429688 14.082031 18.449219 C 14.367188 18.429688 14.65625 18.4375 14.941406 18.480469 C 15.609375 18.628906 15.679688 19.285156 15.347656 19.804688 L 14.828125 20.375 L 15.882812 23.96875 L 17.796875 17.847656 C 19.164062 19.085938 23.996094 19.339844 25.507812 20.1875 C 27.597656 21.371094 27.542969 25.882812 28 28 L 0 28 C 0.457031 25.90625 0.40625 21.359375 2.492188 20.1875 C 4.351562 19.144531 8.683594 19.226562 10.203125 17.847656 Z M 10.203125 17.847656 "/>
</g>
</svg>
